<svg width="1300" height="1244" viewBox="0 0 1300 1244" fill="none" xmlns="http://www.w3.org/2000/svg">
<path d="M647.26 0.000161293L665.44 34.655L706.11 40.2041L676.692 67.1819L683.635 105.271L647.26 87.2906L610.885 105.271L617.828 67.1819L588.41 40.2041L629.079 34.655L647.26 0.000161293Z" fill="#D1D2D2"/>
<path d="M914.578 64.1986L932.758 98.8535L973.428 104.403L944.01 131.38L950.953 169.47L914.578 151.489L878.203 169.47L885.146 131.38L855.728 104.403L896.398 98.8535L914.578 64.1986Z" fill="#D1D2D2"/>
<path d="M1119.56 220.295L1137.74 254.95L1178.41 260.499L1149 287.476L1155.94 325.566L1119.56 307.585L1083.19 325.566L1090.13 287.476L1060.71 260.499L1101.38 254.95L1119.56 220.295Z" fill="#D1D2D2"/>
<path d="M1236.65 443.775L1254.83 478.43L1295.5 483.979L1266.08 510.956L1273.03 549.046L1236.65 531.065L1200.28 549.046L1207.22 510.956L1177.8 483.979L1218.47 478.43L1236.65 443.775Z" fill="#D1D2D2"/>
<path d="M1241.15 703.143L1259.33 737.798L1300 743.347L1270.58 770.324L1277.52 808.414L1241.15 790.433L1204.77 808.414L1211.72 770.324L1182.3 743.347L1222.97 737.798L1241.15 703.143Z" fill="#D1D2D2"/>
<path d="M1119.8 927.667L1137.98 962.322L1178.65 967.871L1149.23 994.849L1156.18 1032.94L1119.8 1014.96L1083.43 1032.94L1090.37 994.849L1060.95 967.871L1101.62 962.322L1119.8 927.667Z" fill="#D1D2D2"/>
<path d="M915.867 1083.89L934.047 1118.54L974.717 1124.09L945.299 1151.07L952.242 1189.16L915.867 1171.18L879.492 1189.16L886.435 1151.07L857.017 1124.09L897.687 1118.54L915.867 1083.89Z" fill="#D1D2D2"/>
<path d="M647.151 1138.73L665.332 1173.38L706.001 1178.93L676.584 1205.91L683.526 1244L647.151 1226.02L610.776 1244L617.719 1205.91L588.301 1178.93L628.971 1173.38L647.151 1138.73Z" fill="#D1D2D2"/>
<path d="M384.392 1084.04L402.572 1118.7L443.242 1124.24L413.81 1151.22L420.767 1189.31L384.392 1171.33L348.017 1189.31L354.96 1151.22L325.542 1124.24L366.211 1118.7L384.392 1084.04Z" fill="#D1D2D2"/>
<path d="M180.351 927.945L198.532 962.6L239.201 968.149L209.783 995.127L216.726 1033.22L180.351 1015.24L143.976 1033.22L150.919 995.127L121.501 968.149L162.171 962.6L180.351 927.945Z" fill="#D1D2D2"/>
<path d="M58.8502 704.813L77.0307 739.468L117.7 745.017L88.2825 771.995L95.2254 810.084L58.8502 792.103L22.475 810.084L29.418 771.995L0 745.017L40.6698 739.468L58.8502 704.813Z" fill="#D1D2D2"/>
<path d="M58.8502 443.775L77.0307 478.43L117.7 483.979L88.2825 510.956L95.2254 549.046L58.8502 531.065L22.475 549.046L29.418 510.956L0 483.979L40.6698 478.43L58.8502 443.775Z" fill="#D1D2D2"/>
<path d="M174.184 220.573L192.364 255.228L233.034 260.777L203.602 287.755L210.559 325.844L174.184 307.863L137.808 325.844L144.751 287.755L115.333 260.777L156.003 255.228L174.184 220.573Z" fill="#D1D2D2"/>
<path d="M384.049 64.3545L402.23 99.0094L442.899 104.558L413.481 131.536L420.424 169.626L384.049 151.645L347.674 169.626L354.617 131.536L325.199 104.558L365.869 99.0094L384.049 64.3545Z" fill="#D1D2D2"/>
<path d="M958.947 711.962C958.747 711.935 958.561 711.854 958.36 711.854C955.512 711.854 953.307 713.915 953.307 716.595C953.307 719.276 955.512 721.35 958.36 721.35C958.561 721.35 958.747 721.255 958.947 721.229C959.162 721.255 959.334 721.35 959.563 721.35C962.197 721.35 964.602 719.276 964.602 716.595C964.602 713.915 962.183 711.854 959.563 711.854C959.334 711.854 959.162 711.935 958.947 711.962Z" fill="#D1D2D2"/>
<path d="M871.368 832.457C871.883 831.595 872.227 830.867 872.312 830.342C872.971 827.042 876.263 820.227 875.39 816.712C874.732 813.21 873.186 804.536 870.781 799.58C868.591 794.421 863.308 782.448 857.825 780.185C857.825 780.185 853.431 793.802 851.899 798.758C850.367 803.917 848.821 809.695 846.416 812.388C845.715 813.304 844.441 815.365 843.038 817.843C842.694 815.769 842.794 815.863 843.324 808.267C844.197 798.772 828.178 783.902 828.178 783.902C829.71 788.037 823.569 804.55 820.491 808.267C817.413 811.782 812.804 822.503 812.145 828.901C811.487 835.514 808.409 839.649 806.004 842.545C801.452 848.377 806.534 872.863 807.135 875.664C796.942 881.617 786.292 887.382 776.386 892.082C773.437 893.47 770.058 894.884 766.422 896.325C767.095 895.719 767.782 895.207 768.441 894.561C782.498 880.513 781.768 875.866 783.601 872.459C788.339 871.691 777.202 870.546 770.745 871.098C774.525 865.711 779.75 858.317 783.386 852C786.249 846.841 758.806 853.656 758.806 853.656C755.829 854.774 753.453 855.636 751.506 856.31C753.782 848.565 756.158 840.013 755.929 838.208C755.714 836.147 744.305 839.662 735.086 843.366C727.184 846.478 722.574 852.458 715.775 856.377C707.644 861.333 706.541 873.725 702.819 879.503C700.314 883.516 698.883 886.574 698.038 889.146C697.265 883.355 694.96 880.661 692.612 879.53C692.598 879.53 692.584 879.516 692.57 879.516C692.455 879.462 692.341 879.408 692.24 879.355C692.126 879.314 691.983 879.26 691.825 879.22C691.295 879.031 690.78 878.897 690.293 878.829C688.547 878.466 685.698 878.048 681.203 877.577C675.062 876.957 665.184 877.577 660.561 885.631C656.194 893.079 652.229 911.599 650.525 915.949C649.395 915.518 648.221 915.222 646.975 915.222C645.73 915.222 644.542 915.518 643.425 915.935C641.707 911.585 637.756 893.079 633.376 885.631C628.766 877.577 618.889 876.957 612.747 877.577C608.252 878.048 605.404 878.466 603.657 878.829C603.17 878.897 602.655 879.031 602.125 879.22C601.968 879.26 601.825 879.314 601.71 879.355C601.596 879.408 601.496 879.462 601.381 879.516C601.367 879.516 601.352 879.53 601.338 879.53C598.532 880.89 595.784 884.432 595.669 892.877C595.197 889.591 593.808 885.631 589.986 879.503C586.264 873.725 585.162 861.333 577.031 856.377C570.231 852.458 565.621 846.478 557.719 843.366C548.5 839.662 537.091 836.147 536.876 838.208C536.647 840.013 539.024 848.565 541.3 856.31C539.353 855.636 536.977 854.774 533.999 853.656C533.999 853.656 506.571 846.841 509.42 852C513.056 858.317 518.295 865.697 522.06 871.098C515.604 870.546 504.466 871.691 509.205 872.459C511.037 875.866 510.307 880.513 524.365 894.561C525.023 895.207 525.71 895.719 526.383 896.325C522.747 894.884 519.369 893.47 516.42 892.082C506.514 887.382 495.863 881.617 485.67 875.664C486.272 872.863 491.354 848.377 486.801 842.545C484.396 839.649 481.319 835.514 480.66 828.901C480.002 822.503 475.392 811.782 472.314 808.267C469.251 804.55 463.095 788.037 464.627 783.902C464.627 783.902 448.608 798.772 449.481 808.267C450.025 815.863 450.111 815.769 449.768 817.843C448.365 815.365 447.091 813.304 446.404 812.388C443.984 809.695 442.453 803.917 440.907 798.758C439.375 793.802 434.98 780.185 434.98 780.185C429.497 782.448 424.215 794.421 422.025 799.58C419.62 804.536 418.074 813.21 417.415 816.712C416.542 820.227 419.834 827.042 420.493 830.342C420.579 830.867 420.922 831.595 421.438 832.457C410.1 824.362 400.609 816.483 391.39 803.607C392.206 800.118 393.022 797.425 394.611 796.078C396.801 793.802 404.488 785.128 406.02 779.565C407.552 773.774 406.02 769.437 406.02 766.555C406.02 763.659 408.21 753.746 408.21 753.746C408.21 753.746 408.096 753.409 407.953 752.924H420.736C443.498 768.723 525.395 817.345 621.737 777.774C621.208 779.255 620.692 780.414 620.206 780.993C620.206 780.993 599.52 807.405 646.288 816.362L646.274 816.375C646.274 816.375 646.274 816.362 646.288 816.362H646.317C693.085 807.405 672.385 780.993 672.385 780.993C671.913 780.414 671.383 779.242 670.853 777.747C767.224 817.372 849.15 768.736 871.926 752.924H884.853C884.71 753.409 884.595 753.746 884.595 753.746C884.595 753.746 886.785 763.659 886.785 766.555C886.785 769.437 885.254 773.774 886.785 779.565C888.317 785.128 896.004 793.802 898.195 796.078C899.784 797.425 900.6 800.118 901.415 803.607C892.211 816.483 882.705 824.362 871.368 832.457ZM636.339 923.074C633.905 921.794 626.791 918.575 616.684 918.414C603.228 903.248 608.467 888.81 609.841 885.739C619.261 895.854 633.39 917.498 636.611 922.481C636.511 922.683 636.425 922.872 636.339 923.074ZM677.252 918.414C667.146 918.575 660.031 921.794 657.597 923.087C657.526 922.885 657.425 922.683 657.34 922.495C660.546 917.511 674.675 895.854 684.109 885.739C685.483 888.81 690.723 903.248 677.252 918.414ZM332.626 620.891C333.112 619.463 333.527 618.022 333.842 616.554C334.444 615.881 335.102 615.423 335.846 615.423C338.924 615.423 342.646 613.362 345.066 611.921C347.256 610.48 348.143 609.025 354.285 606.762C360.211 604.702 360.211 599.732 365.708 590.452C370.962 580.956 368.772 563.191 368.772 563.191C368.127 565.144 363.074 569.495 358.35 572.835C358.436 568.673 357.62 563.797 357.062 561.575C356.403 558.06 357.062 552.901 357.062 552.901C343.448 559.514 341.916 571.69 335.761 578.088C335.746 578.114 335.732 578.141 335.703 578.168C337.436 564.592 339.955 550.49 343.448 537.156V537.21C344.106 535.149 348.716 532.873 354.199 531.432C356.503 530.799 359.395 528.253 362.215 525.385C362.23 525.412 362.215 525.438 362.215 525.465C362.33 526.88 363.046 528.092 364.191 528.846C364.978 529.358 365.88 529.627 366.853 529.627C367.312 529.627 367.784 529.56 368.242 529.452C368.972 529.264 369.659 528.927 370.275 528.496L369.001 535.877C369.001 535.877 367.884 539.015 374.34 540.294C372.837 555.743 363.489 668.583 403.615 734.459L400.838 738.823C397.488 736.088 390.574 726.957 389.114 724.236C389.114 724.236 389.987 730.014 387.582 732.896C385.664 735.415 384.762 741.22 384.547 745.409C383.717 741.799 382.615 738.634 383.187 735.779C383.846 731.455 385.377 728.559 384.504 720.721C383.846 712.882 381.655 703.589 381.655 703.589C380.768 711.427 374.627 711.427 371.549 719.266C369.359 725.475 368.7 725.058 364.749 730.836C362.387 734.351 361.342 737.705 361.084 740.762C357.62 731.401 354.385 721.973 351.464 712.747C352.309 711.427 352.867 706.848 353.311 701.501C356.761 698.511 360.097 698.255 361.528 696.342C363.06 694.066 362.401 691.386 363.933 688.49C365.479 685.594 368.772 680.853 369.201 678.375C370.747 670.523 375.342 661.863 371.406 653.404C371.406 653.404 369.444 654.024 367.183 654.845C367.498 653.027 367.827 651.438 368.299 650.535C369.616 647.653 368.958 628.245 366.768 623.288C366.768 623.288 360.612 627.625 357.548 631.141C354.471 634.642 349.188 636.097 347.657 640.434C346.125 644.771 343.061 644.771 340.857 649.108C339.182 652.138 337.679 656.475 337.393 660.772C334.544 647.761 332.869 637.363 332.668 631.545C332.583 628.312 332.568 624.729 332.626 620.891ZM382.171 509.168C382.142 509.209 379.179 513.573 375.099 514.179C374.913 513.357 374.999 512.549 375.113 511.768C376.946 509.492 378.778 507.162 381.641 505.626C381.842 505.518 382.013 505.343 382.214 505.209C382.615 505.572 382.901 506.071 382.958 506.677C383.03 507.498 382.758 508.36 382.171 509.168ZM440.692 390.711C440.219 390.685 439.547 390.55 439.031 390.025C438.516 389.499 438.444 388.853 438.459 388.408C438.502 387.519 438.988 386.617 439.876 385.849C439.904 385.809 443.269 382.401 447.32 382.401C447.492 382.401 447.692 382.415 447.878 382.428C447.749 386.307 443.526 389.634 443.44 389.701C442.639 390.388 441.637 390.806 440.692 390.711ZM436.913 367.842L445.058 370.441L445.402 376.61L445.387 376.596L438.902 375.721L436.913 367.842ZM455.78 372.232C456.582 371.559 457.57 371.155 458.529 371.236C459.001 371.249 459.674 371.384 460.189 371.923C460.705 372.448 460.776 373.081 460.762 373.539C460.719 374.428 460.232 375.33 459.388 376.058C459.345 376.084 455.709 379.506 451.729 379.506C451.6 379.506 451.457 379.492 451.314 379.479C451.357 375.425 455.651 372.34 455.78 372.232ZM644.513 331.921C644.513 331.921 650.339 323.22 652.988 312.688C656.881 336.042 651.986 353.457 650.182 358.75L646.302 352.636L633.562 372.677C632.803 365.121 633.032 349.147 644.513 331.921ZM635.552 284.727C634.478 284.727 633.476 284.363 632.803 283.743C632.474 283.42 632.059 282.895 632.059 282.181C632.059 281.467 632.46 280.942 632.789 280.632C633.462 279.999 634.464 279.635 635.666 279.622C635.738 279.635 641.092 279.164 644.041 282.154C641.178 284.942 635.681 284.727 635.552 284.727ZM646.345 264.416L650.525 271.487L646.36 276.268L642.194 271.5L646.345 264.416ZM656.323 279.582C656.924 279.582 657.168 279.608 657.182 279.608C659.1 279.608 660.661 280.74 660.675 282.141C660.675 283.555 659.1 284.7 657.125 284.7C657.068 284.7 651.542 284.929 648.693 282.141C650.941 279.851 654.663 279.582 656.323 279.582ZM832.473 371.923C832.917 371.451 833.547 371.236 834.248 371.236C835.136 371.236 836.123 371.586 836.968 372.313C837.011 372.34 840.776 375.142 841.205 378.913C840.661 378.886 840.203 379.021 839.831 379.29C836.324 378.751 833.303 376.084 833.232 376.017C831.8 374.791 831.471 372.96 832.473 371.923ZM847.59 370.441L855.75 367.842L853.76 375.721L847.275 376.61L847.59 370.441ZM853.631 390.025C852.615 391.062 850.639 390.913 849.179 389.661C849.122 389.634 845.328 386.55 844.899 382.873C844.999 382.751 845.085 382.617 845.128 382.469C849.293 382.307 852.758 385.822 852.872 385.93C854.289 387.142 854.633 388.987 853.631 390.025ZM910.463 509.114C909.833 508.279 909.575 507.296 909.747 506.421C909.804 506.03 910.048 505.545 910.506 505.141C910.735 505.303 910.935 505.505 911.164 505.626C913.956 507.121 915.774 509.37 917.549 511.593C917.692 512.428 917.764 513.29 917.563 514.179C913.483 513.573 910.52 509.209 910.463 509.114ZM726.411 752.924H798.746C753.567 783.754 700.701 770.636 692.555 768.332C702.819 765.76 714.687 761.113 726.411 752.924ZM638.343 793.276C638.343 793.276 643.382 768.548 646.288 752.924C649.208 768.548 654.247 793.276 654.247 793.276C657.34 805.344 646.417 816.227 646.302 816.348C646.174 816.227 635.265 805.344 638.343 793.276ZM566.251 752.924C577.976 761.113 589.843 765.76 600.107 768.332C591.962 770.636 539.095 783.754 493.916 752.924H566.251ZM613.635 630.588C615.711 632.501 617.658 634.521 619.59 636.555C621.752 638.818 623.942 641.067 626.132 643.303C630.055 647.289 634.049 651.222 638.071 655.115C645.286 662.065 652.658 668.88 660.303 675.426C663.237 677.931 666.215 680.395 669.264 682.793C669.407 682.914 669.551 683.035 669.78 683.21C669.593 683.251 669.522 683.264 669.45 683.264C599.52 683.264 529.575 683.264 459.66 683.264C459.574 683.076 459.717 683.008 459.803 682.928C460.776 682.012 461.75 681.096 462.723 680.193C465.872 677.298 469.05 674.429 472.314 671.641C476.251 668.274 480.274 664.987 484.497 661.943C487.059 660.098 489.693 658.361 492.47 656.825C493.258 656.394 494.016 655.882 494.761 655.384C501.432 651.02 507.745 646.252 513.657 640.986C517.035 637.983 520.228 634.818 523.162 631.41C523.348 631.194 523.534 630.965 523.692 630.737C526.14 627.006 528.888 623.477 531.823 620.083C534.171 617.362 536.647 614.749 539.31 612.284C542.073 609.725 544.993 607.328 548.214 605.281C550.318 603.947 552.509 602.789 554.871 601.927C556.474 601.348 558.12 600.917 559.824 600.728C562.816 600.392 565.636 600.903 568.27 602.264C569.415 602.856 570.489 603.543 571.476 604.338C573.81 606.21 576.286 607.907 578.834 609.537C581.798 611.422 584.847 613.146 588.053 614.655C589.728 615.45 591.446 616.177 593.207 616.796C594.381 617.214 595.483 617.753 596.571 618.305C599.52 619.813 602.297 621.564 604.96 623.477C608.023 625.672 610.901 628.056 613.635 630.588ZM707.443 647.061C710.779 650.616 714.214 654.091 717.679 657.539C720.814 660.664 724.006 663.748 727.227 666.792C732.71 671.978 738.321 677.042 744.148 681.864C744.591 682.227 745.035 682.591 745.465 682.955C745.55 683.022 745.622 683.089 745.708 683.197C745.622 683.224 745.565 683.251 745.522 683.264C745.35 683.264 745.178 683.264 745.021 683.264C738.192 683.264 731.35 683.264 724.521 683.264C724.493 683.264 724.45 683.264 724.407 683.264C724.063 683.305 723.763 683.197 723.491 682.981C721.945 681.796 720.37 680.638 718.838 679.439C713.799 675.493 708.975 671.331 704.265 667.048C701.717 664.745 699.183 662.415 696.692 660.058C689.993 653.741 683.465 647.276 677.095 640.663C675.635 639.141 674.189 637.606 672.686 636.11C668.906 632.393 664.798 629.013 660.303 626.076C658.184 624.689 655.994 623.423 653.689 622.332C653.575 622.278 653.46 622.211 653.317 622.143C653.374 622.076 653.403 622.009 653.46 621.982C655.407 620.85 657.454 619.935 659.687 619.45C660.818 619.207 661.963 619.113 663.109 619.194C664.497 619.302 665.8 619.706 667.017 620.339C667.947 620.81 668.792 621.403 669.608 622.036C674.203 625.591 679.127 628.649 684.524 631.033C685.283 631.37 686.042 631.666 686.815 631.949C688.16 632.434 689.434 633.04 690.666 633.7C693.5 635.235 696.134 637.026 698.639 638.979C701.803 641.458 704.723 644.165 707.443 647.061ZM743.876 647.316C746.166 649.175 748.285 651.182 750.289 653.297C754.626 657.889 759.093 662.361 763.631 666.779C767.711 670.725 771.862 674.604 776.128 678.375C777.831 679.87 779.578 681.338 781.296 682.82C781.41 682.928 781.539 683.035 781.725 683.197C781.596 683.237 781.539 683.264 781.496 683.264C781.324 683.264 781.153 683.264 780.981 683.264C773.351 683.264 765.706 683.264 758.062 683.264C757.976 683.264 757.876 683.251 757.79 683.264C757.475 683.305 757.246 683.183 757.017 683.008C755.457 681.81 753.882 680.638 752.35 679.412C747.927 675.91 743.675 672.233 739.524 668.449C737.104 666.253 734.699 664.031 732.323 661.795C726.096 655.909 720.012 649.889 714.085 643.734C712.797 642.387 711.509 641.013 710.177 639.693C708.016 637.552 705.711 635.531 703.292 633.646C703.177 633.551 703.063 633.457 702.962 633.363C702.934 633.336 702.919 633.296 702.877 633.242C702.934 633.201 702.991 633.161 703.048 633.12C704.623 632.043 706.269 631.073 708.073 630.4C709.247 629.969 710.435 629.672 711.68 629.605C713.04 629.538 714.3 629.821 715.488 630.4C716.276 630.79 717.006 631.275 717.679 631.801C721.329 634.656 725.237 637.121 729.474 639.141C730.634 639.707 731.836 640.218 733.068 640.649C734.241 641.067 735.329 641.619 736.403 642.198C739.08 643.68 741.542 645.417 743.876 647.316ZM766.551 645.242C767.009 645.444 767.481 645.633 767.954 645.794C769.128 646.199 770.216 646.751 771.289 647.343C774.124 648.946 776.701 650.859 779.134 652.96C780.68 654.307 782.14 655.734 783.543 657.216C786.363 660.219 789.241 663.156 792.19 666.038C794.838 668.637 797.501 671.21 800.192 673.755C803.442 676.826 806.777 679.816 810.198 682.739C810.356 682.874 810.542 682.981 810.656 683.197C810.571 683.224 810.528 683.251 810.47 683.264C810.313 683.264 810.141 683.264 809.969 683.264C804.587 683.264 799.204 683.264 793.822 683.264C793.822 683.264 793.793 683.264 793.764 683.264C793.349 683.318 793.02 683.17 792.691 682.928C789.541 680.503 786.492 677.985 783.5 675.399C780.58 672.866 777.717 670.28 774.897 667.641C768.684 661.849 762.643 655.896 756.774 649.795C755.528 648.515 754.311 647.209 753.023 645.97C750.131 643.155 746.996 640.596 743.575 638.333C743.446 638.252 743.303 638.144 743.146 638.037C743.203 637.969 743.231 637.902 743.289 637.875C744.72 637.04 746.223 636.353 747.884 636.03C749.544 635.693 751.09 635.935 752.551 636.757C753.123 637.094 753.653 637.484 754.183 637.888C757.99 640.811 762.056 643.33 766.551 645.242ZM645.429 626.467C646.317 626.844 647.219 627.221 648.135 627.544C649.166 627.935 650.168 628.366 651.141 628.864C653.89 630.238 656.452 631.881 658.914 633.673C662.98 636.649 666.673 640.003 670.095 643.613C675.305 649.135 680.674 654.522 686.128 659.829C688.375 661.997 690.623 664.152 692.899 666.294C698.682 671.695 704.58 676.988 710.736 682.012C711.122 682.321 711.509 682.631 711.881 682.941C711.967 683.008 712.038 683.089 712.124 683.157L712.081 683.264C711.895 683.264 711.709 683.264 711.523 683.264H682.177C682.134 683.264 682.105 683.264 682.062 683.264C681.719 683.318 681.447 683.183 681.189 682.981C680.53 682.497 679.843 682.012 679.17 681.527C674.99 678.456 670.968 675.21 667.017 671.87C662.479 668.045 658.055 664.098 653.703 660.085C644.198 651.33 634.993 642.279 626.046 633.026C624.5 631.41 622.969 629.767 621.394 628.191C617.944 624.729 614.25 621.537 610.285 618.615C610.142 618.507 610.013 618.399 609.841 618.265C609.942 618.184 609.999 618.116 610.07 618.062C612.003 616.783 614.021 615.665 616.226 614.857C617.457 614.412 618.717 614.076 620.034 613.914C622.367 613.618 624.6 613.968 626.691 615.005C627.707 615.503 628.637 616.096 629.496 616.783C631.772 618.601 634.177 620.231 636.654 621.78C639.46 623.531 642.366 625.134 645.429 626.467ZM480.188 640.003H503.679C499.141 643.693 494.46 647.222 489.493 650.428C489.049 650.724 488.576 650.993 488.118 651.249C485.456 652.744 482.936 654.414 480.488 656.179C476.48 659.034 472.658 662.092 468.922 665.257C465.185 668.395 461.563 671.641 457.985 674.941L480.188 640.003ZM416.671 739.94L448.322 690.147H832.688C832.53 690.052 832.373 689.958 832.215 689.877C831.557 689.527 830.884 689.204 830.24 688.84C827.949 687.547 825.788 686.066 823.683 684.517C819.918 681.715 816.325 678.725 812.818 675.641C807.75 671.183 802.855 666.55 798.059 661.822C794.91 658.724 791.803 655.6 788.783 652.394C787.466 650.98 786.063 649.646 784.617 648.354C782.012 646.037 779.249 643.922 776.214 642.104C774.897 641.309 773.508 640.623 772.077 640.003H812.56L876.12 739.94H416.671ZM852.013 676.032L818.287 623.005C824.371 605.954 824.27 587.111 824.041 580.781L864.654 553.911C871.74 627.41 857.639 664.556 852.013 676.032ZM920.226 517.761C924.506 518.3 927.226 522.704 927.312 522.839C927.87 523.593 928.128 524.455 928.056 525.277C927.999 526.018 927.655 526.624 927.083 527.001C926.539 527.364 925.809 527.472 925.036 527.27C924.205 527.055 923.432 526.516 922.831 525.721C922.788 525.681 919.453 521.56 920.226 517.761ZM784.703 570.222L755.299 523.984C763.717 505.868 762.371 477.073 761.669 467.846L793.979 434.35C806.204 517.169 791.717 556.767 784.703 570.222ZM606.177 441.771C631.515 431.306 660.761 431.171 686.199 441.381L810.342 636.528H764.833C762.757 635.329 760.739 634.023 758.835 632.568C758.148 632.043 757.461 631.518 756.716 631.073C753.581 629.201 750.203 628.595 746.553 629.268C744.677 629.605 742.916 630.252 741.213 631.073C739.524 631.881 737.935 632.878 736.432 633.969C736.26 634.077 736.117 634.225 735.888 634.292C735.129 634.036 734.37 633.727 733.626 633.39C729.589 631.558 725.881 629.241 722.431 626.561C721.315 625.686 720.141 624.891 718.838 624.272C716.719 623.234 714.458 622.709 712.053 622.709C710.406 622.709 708.803 622.965 707.228 623.41C704.967 624.029 702.891 624.999 700.901 626.171C699.57 626.938 698.31 627.8 697.093 628.716C696.95 628.824 696.821 628.986 696.592 628.999C696.506 628.945 696.406 628.905 696.32 628.837C694.001 627.477 691.596 626.292 689.034 625.362C686.729 624.527 684.567 623.41 682.463 622.197C679.485 620.5 676.637 618.615 673.974 616.5C673.029 615.746 672.013 615.072 670.925 614.493C668.677 613.268 666.272 612.527 663.681 612.325C661.92 612.204 660.188 612.325 658.456 612.662C656.123 613.133 653.918 613.941 651.814 614.978C650.669 615.544 649.638 616.271 648.564 616.945V549.291C656.166 548.847 662.006 546.382 662.006 543.365C662.006 540.443 656.524 520.024 649.251 515.095C648.894 514.812 642.58 510.232 634.192 514.731C634.192 514.731 624.744 519.862 629.582 527.109C629.582 527.109 630.599 529.291 634.721 527.728C635.509 527.432 637.456 526.503 638.071 523.836L637.971 525.587C637.928 528.078 634.292 529.466 634.12 529.533C631.744 535.782 630.284 541.87 630.284 543.365C630.284 546.396 636.182 548.874 643.855 549.305V617.887C643.611 617.766 643.382 617.645 643.153 617.51C640.004 615.705 636.983 613.712 634.163 611.476C633.132 610.655 632.016 609.914 630.842 609.281C628.58 608.055 626.161 607.274 623.555 607.018C621.508 606.816 619.461 606.951 617.443 607.355C614.995 607.84 612.69 608.702 610.486 609.779C608.166 610.911 606.019 612.257 603.943 613.753C603.786 613.874 603.657 614.022 603.414 614.062C603.256 613.968 603.07 613.874 602.898 613.766C601.954 613.254 601.009 612.729 600.064 612.244C598.718 611.544 597.358 610.911 595.927 610.412C594.066 609.739 592.248 608.971 590.473 608.096C585.405 605.577 580.681 602.574 576.258 599.126C575.843 598.789 575.413 598.466 574.984 598.156C571.519 595.691 567.654 594.142 563.288 593.805C563.145 593.792 563.002 593.738 562.859 593.698H560.497C560.31 593.738 560.124 593.792 559.938 593.805C557.147 594.021 554.455 594.681 551.864 595.678C548.887 596.809 546.124 598.304 543.49 600.028C540.498 601.981 537.735 604.19 535.116 606.56C531.723 609.618 528.602 612.891 525.667 616.339C522.819 619.679 520.142 623.14 517.694 626.763C517.579 626.938 517.436 627.113 517.293 627.275C515.504 629.349 513.6 631.329 511.595 633.228C510.379 634.4 509.019 635.41 507.745 636.528H482.392L606.177 441.771ZM615.997 426.336C635.652 421.137 656.796 421.083 676.493 426.121L681.461 433.919C670.324 430.282 658.685 428.424 646.66 428.424C634.335 428.424 622.382 430.363 610.987 434.202L615.997 426.336ZM628.337 406.901L646.302 378.657L664.197 406.78C652.315 405.298 640.19 405.352 628.337 406.901ZM624.658 412.692C638.873 410.335 653.646 410.308 667.89 412.585L672.499 419.831C655.264 416.248 637.212 416.329 619.991 420.033L624.658 412.692ZM498.683 434.35L530.978 467.846C530.291 477.073 528.931 505.895 537.377 524.011L507.974 570.249C500.974 556.834 486.443 517.236 498.683 434.35ZM365.422 522.745C365.451 522.704 368.142 518.3 372.436 517.761C373.209 521.56 369.86 525.681 369.788 525.775C369.23 526.516 368.457 527.055 367.612 527.27C366.825 527.459 366.138 527.364 365.565 526.987C365.007 526.624 364.663 526.018 364.606 525.277C364.534 524.455 364.792 523.593 365.422 522.745ZM428.008 553.911L468.621 580.781C468.378 587.125 468.292 605.995 474.404 623.073L440.692 676.112C435.08 664.731 420.908 627.571 428.008 553.911ZM960.137 631.545C959.936 637.363 958.262 647.761 955.413 660.772C955.127 656.475 953.638 652.138 951.948 649.108C949.758 644.771 946.68 644.771 945.149 640.434C943.617 636.097 938.335 634.642 935.271 631.141C932.193 627.625 926.038 623.288 926.038 623.288C923.848 628.245 923.189 647.653 924.506 650.535C924.978 651.438 925.308 653.027 925.623 654.845C923.361 654.024 921.4 653.404 921.4 653.404C917.463 661.863 922.072 670.523 923.604 678.375C924.048 680.853 927.326 685.594 928.872 688.49C930.404 691.386 929.745 694.066 931.277 696.342C932.709 698.255 936.044 698.511 939.494 701.501C939.938 706.848 940.496 711.427 941.341 712.747C938.421 721.973 935.185 731.401 931.721 740.762C931.463 737.705 930.418 734.351 928.056 730.836C924.105 725.058 923.447 725.475 921.256 719.266C918.179 711.427 912.037 711.427 911.15 703.589C911.15 703.589 908.96 712.882 908.301 720.721C907.428 728.559 908.96 731.455 909.618 735.779C910.191 738.634 909.089 741.799 908.258 745.409C908.043 741.22 907.142 735.415 905.223 732.896C902.818 730.014 903.692 724.236 903.692 724.236C902.231 726.957 895.303 736.115 891.953 738.836L889.104 734.351C929.159 668.476 919.825 555.743 918.308 540.294C924.778 539.015 923.647 535.877 923.647 535.877L922.387 528.496C923.003 528.927 923.69 529.264 924.406 529.452C924.893 529.56 925.351 529.627 925.809 529.627C926.768 529.627 927.684 529.358 928.471 528.846C929.617 528.092 930.332 526.88 930.447 525.465C930.461 525.385 930.418 525.304 930.433 525.223C933.31 528.159 936.259 530.786 938.607 531.432C944.089 532.873 948.699 535.149 949.357 537.21V537.156C952.85 550.49 955.384 564.592 957.102 578.168C957.073 578.141 957.059 578.114 957.045 578.088C950.889 571.69 949.357 559.514 935.744 552.901C935.744 552.901 936.402 558.06 935.744 561.575C935.185 563.797 934.369 568.673 934.47 572.835C929.731 569.495 924.678 565.144 924.034 563.191C924.034 563.191 921.843 580.956 927.097 590.452C932.594 599.732 932.594 604.702 938.521 606.762C944.662 609.025 945.55 610.48 947.74 611.921C950.159 613.362 953.881 615.423 956.959 615.423C957.703 615.423 958.362 615.881 958.963 616.554C959.278 618.022 959.693 619.463 960.18 620.891C960.237 624.729 960.223 628.312 960.137 631.545ZM1014.99 645.35C1014.99 645.35 1006.43 646.791 1002.71 649.687C1000.88 651.101 998.244 651.815 995.596 652.461C996.856 650.037 997.7 647.034 997.414 643.316C996.541 634.642 996.541 620.393 996.541 620.393C996.541 620.393 993.463 629.066 989.068 631.127C984.473 633.201 976.127 636.084 974.581 638.993C973.049 641.875 966.894 641.875 964.489 650.549C962.298 659.007 962.298 658.388 960.767 661.283C960.294 662.172 959.593 663.156 958.834 664.206C961.712 651.155 963.859 637.7 963.859 626.184C963.859 624.164 963.802 622.251 963.773 620.271C966.049 618.574 969.07 615.49 969.07 615.49C971.016 612.473 994.551 604.89 997.843 598.91C1001.14 593.132 1002.88 589.011 1004.43 586.519C1005.73 583.839 1008.81 574.559 1008.15 570.424C1007.71 566.302 1007.06 550.813 1005.52 548.335C1005.52 548.335 998.273 551.851 995.854 555.352C995.195 556.295 994.279 557.117 993.248 557.858C993.262 555.797 992.962 553.696 992.146 551.662C988.853 544.025 983.8 533.91 983.8 533.91C983.8 533.91 979.405 540.308 976.986 544.241C973.035 551.675 969.084 552.282 968.425 555.177C967.982 558.275 963.157 560.134 961.411 566.114C960.767 568.228 960.409 569.737 960.208 570.895C958.462 558.127 956.214 546.504 953.652 536.038C954.783 532.685 956.057 525.371 959.235 522.96C963.83 519.243 964.489 514.3 964.489 508.508C964.489 502.73 963.172 498.595 962.298 494.892C961.64 491.376 950.002 476.305 950.889 471.981C950.889 471.981 945.163 484.171 942.987 488.952C937.304 483.632 928.529 477.355 923.676 475.079C920.798 470.365 917.835 465.624 914.815 460.897C914.958 459.496 915.287 456.533 915.759 453.381C916.633 449.044 918.179 441.812 916.633 438.31C915.101 434.808 912.023 431.899 910.491 427.575C908.945 423.238 908.287 420.343 904.336 416.841C900.614 413.123 895.117 408.167 895.117 408.167C895.117 408.167 893.628 414.551 892.211 419.723C890.808 419.036 889.376 418.551 888.317 418.282C887.415 417.945 885.483 417.016 883.35 415.938C880.701 412.558 878.139 409.352 875.719 406.51C877.079 405.675 878.01 404.315 878.01 402.618C878.01 399.924 875.805 397.863 872.957 397.863C870.108 397.863 867.903 399.924 867.903 402.618C867.903 405.298 870.108 407.359 872.957 407.359C874.002 407.359 874.889 407.022 875.677 406.537C876.378 407.547 878.382 410.497 881.345 414.915C878.883 413.635 876.493 412.356 875.376 411.682C873.4 410.443 872.298 424.612 876.879 432.464C876.149 432.289 875.405 432.087 874.717 431.926C865.498 429.663 857.167 430.484 857.167 430.484C859.357 430.484 864.854 436.06 865.498 438.956C866.386 441.839 871.654 448.452 874.732 449.691C877.795 451.132 883.078 454.849 886.141 457.732C889.162 460.573 898.696 461.233 905.481 461.247C908.172 462.486 910.663 463.227 912.209 462.823C915.044 467.415 917.864 472.076 920.627 476.722C919.768 480.265 918.379 486.595 918.837 489.087V489.114C915.115 488.48 902.16 485.598 902.16 485.598C903.42 492.669 905.567 499.821 908.816 503.592C908.101 504.239 907.557 505.047 907.371 506.017C907.099 507.485 907.5 509.088 908.459 510.367C908.602 510.569 911.393 514.623 915.688 516.01L852.93 557.548C857.911 487.309 848.936 420.019 846.788 405.325C854.404 402.618 852.343 399.399 852.343 399.399L849.379 392.409C850.181 392.745 851.011 392.961 851.827 392.961C853.187 392.961 854.49 392.489 855.406 391.546C857.296 389.58 856.881 386.307 854.561 384.341C854.447 384.206 852.557 382.28 849.723 381.081L858.67 379.856L863.809 359.518H863.781L863.795 359.505L842.751 366.225L842.293 374.724C840.776 372.205 838.6 370.63 838.5 370.562C836.08 368.515 832.587 368.434 830.698 370.401C828.808 372.354 829.209 375.627 831.571 377.647C831.743 377.808 835.107 380.772 839.316 381.472C839.387 381.66 839.487 381.836 839.602 382.011L734.385 491.12L664.497 381.256C668.806 354.629 653.618 314.196 653.016 312.593C653.904 309.051 654.419 305.334 654.233 301.657C659.043 300.148 660.503 296.633 660.861 295.448C660.918 295.38 660.99 295.286 661.033 295.219C661.019 295.205 660.976 295.165 660.961 295.138C660.961 295.097 660.99 295.017 660.99 295.017C660.99 295.017 656.023 289.212 652.916 286.531C654.534 286.855 656.008 286.976 656.71 286.976C656.982 286.976 657.153 286.962 657.182 286.962C660.432 286.962 663.066 284.794 663.066 282.141C663.066 279.501 660.432 277.346 657.311 277.346H657.297C657.111 277.332 654.333 277.117 651.384 278.019L657.125 271.433L646.331 253.156L635.595 271.46L641.349 278.046C638.415 277.144 635.666 277.359 635.552 277.373C633.834 277.373 632.202 277.979 631.085 279.029C630.169 279.905 629.668 281.023 629.668 282.181C629.668 283.339 630.169 284.471 631.1 285.333C632.216 286.383 633.834 286.989 635.48 286.989C635.48 286.976 635.666 286.989 635.981 286.989C636.582 286.989 637.756 286.895 639.059 286.68C637.255 288.255 634.979 290.666 633.404 292.404C632.746 292.969 632.202 293.522 631.887 294.087C631.672 294.33 631.529 294.505 631.529 294.505C631.529 294.505 631.601 294.801 631.758 295.219C631.787 295.367 631.701 295.515 631.801 295.663C632.789 297.441 633.877 298.559 635.008 299.3C626.991 313.28 607.279 353.834 618.688 396.085L558.278 491.12L452.645 381.593C457.183 381.149 460.905 377.822 461.048 377.687C462.308 376.596 463.081 375.128 463.152 373.633C463.21 372.407 462.795 371.249 461.964 370.401C461.134 369.539 459.96 369.027 458.643 368.973C457.126 368.946 455.422 369.485 454.248 370.495C454.105 370.603 451.886 372.192 450.369 374.724L449.911 366.225L428.867 359.505L428.882 359.518H428.853L433.992 379.856L442.939 381.081C440.133 382.28 438.258 384.179 438.172 384.26C436.913 385.337 436.139 386.819 436.068 388.301C436.011 389.54 436.426 390.684 437.256 391.546C438.086 392.408 439.26 392.907 440.577 392.974C440.663 392.974 440.749 392.974 440.835 392.974C441.665 392.974 442.496 392.759 443.283 392.435L440.32 399.399C440.32 399.399 438.258 402.631 445.874 405.325C443.727 420.019 434.737 487.309 439.718 557.548L376.974 516.01C381.269 514.623 384.06 510.583 384.175 510.407C385.048 509.236 385.463 507.835 385.349 506.488C385.249 505.357 384.69 504.427 383.917 503.687C387.196 499.942 389.386 492.723 390.645 485.598C390.645 485.598 377.69 488.48 373.968 489.114H373.954L373.968 489.087C374.426 486.595 373.052 480.265 372.179 476.722C374.942 472.076 377.762 467.415 380.596 462.823C382.142 463.227 384.633 462.486 387.324 461.247C394.11 461.233 403.644 460.573 406.664 457.732C409.728 454.849 415.01 451.132 418.074 449.691C421.151 448.452 426.419 441.839 427.307 438.956C427.951 436.06 433.448 430.484 435.638 430.484C435.638 430.484 427.307 429.663 418.088 431.926C417.401 432.087 416.656 432.289 415.926 432.464C420.507 424.612 419.405 410.443 417.444 411.682C416.327 412.356 413.922 413.635 411.46 414.915C414.423 410.497 416.427 407.547 417.129 406.537C417.916 407.022 418.818 407.359 419.849 407.359C422.697 407.359 424.902 405.298 424.902 402.618C424.902 399.924 422.697 397.863 419.849 397.863C417 397.863 414.795 399.924 414.795 402.618C414.795 404.301 415.726 405.675 417.086 406.51C414.667 409.352 412.104 412.558 409.456 415.938C407.323 417.016 405.39 417.945 404.488 418.282C403.429 418.551 401.997 419.036 400.595 419.723C399.192 414.551 397.689 408.167 397.689 408.167C397.689 408.167 392.192 413.123 388.47 416.841C384.519 420.343 383.86 423.238 382.314 427.575C380.782 431.899 377.704 434.808 376.173 438.31C374.641 441.812 376.173 449.044 377.046 453.381C377.533 456.533 377.848 459.496 378.005 460.897C374.97 465.624 372.007 470.365 369.13 475.079C364.277 477.355 355.501 483.632 349.818 488.952C347.642 484.171 341.916 471.981 341.916 471.981C342.804 476.305 331.165 491.376 330.507 494.892C329.634 498.595 328.317 502.73 328.317 508.508C328.317 514.3 328.975 519.243 333.57 522.96C336.748 525.371 338.022 532.685 339.153 536.038C336.591 546.504 334.343 558.127 332.611 570.895C332.397 569.737 332.039 568.228 331.394 566.114C329.648 560.134 324.824 558.275 324.38 555.177C323.721 552.282 319.77 551.675 315.819 544.241C313.4 540.308 309.005 533.91 309.005 533.91C309.005 533.91 303.952 544.025 300.659 551.662C299.843 553.696 299.557 555.797 299.557 557.871C298.526 557.117 297.61 556.295 296.952 555.352C294.533 551.851 287.289 548.335 287.289 548.335C285.757 550.813 285.099 566.302 284.655 570.424C283.996 574.559 287.074 583.839 288.377 586.519C289.923 589.011 291.669 593.132 294.962 598.91C298.255 604.89 321.789 612.473 323.75 615.49C323.75 615.49 326.756 618.574 329.032 620.271C329.004 622.251 328.947 624.164 328.947 626.184C328.947 637.7 331.094 651.155 333.985 664.206C333.227 663.156 332.511 662.172 332.039 661.283C330.507 658.388 330.507 659.007 328.317 650.549C325.912 641.875 319.756 641.875 318.224 638.993C316.678 636.084 308.347 633.201 303.737 631.127C299.342 629.066 296.265 620.393 296.265 620.393C296.265 620.393 296.265 634.642 295.391 643.316C295.105 647.034 295.95 650.037 297.209 652.461C294.561 651.815 291.941 651.101 290.095 649.687C286.373 646.791 277.812 645.35 277.812 645.35C277.154 648.232 281.763 664.125 282.422 668.26C283.295 672.597 289.222 681.271 291.641 683.332C293.831 685.594 296.909 689.11 302.177 694.066C307.66 699.225 321.431 700.262 336.648 705.003C342.46 706.821 345.695 710.215 347.356 712.612C347.914 714.444 348.401 716.06 348.702 717.232C350.405 723.495 352.653 731.118 355.287 739.348C351.035 733.974 343.663 732.708 335.131 731.469C329.848 730.634 309.22 725.677 309.22 725.677C314.144 729.085 317.165 738.594 320.214 747.173C308.347 744.883 296.265 747.146 296.265 747.146C298.455 748.587 314.488 761.598 316.678 768.831C319.083 775.834 327.429 788.845 329.634 790.286C332.053 791.741 338.853 799.58 343.462 803.917C348.072 808.253 366.295 805.991 372.436 805.991C376.302 805.991 382.486 808.913 386.394 810.166C390.288 815.163 396.973 821.709 405.762 829.17C400.752 827.5 391.948 822.194 388.928 818.786C385.95 814.988 389.357 831.5 392.778 836.847C387.811 836.416 382.486 835.433 379.465 833.251C374.426 829.521 378.807 846.249 384.304 851.003C396.114 860.902 395.026 862.465 396.916 863.138C386.966 865.024 373.124 868.202 368.915 865.859C363.418 862.963 375.056 873.078 382.085 875.556C392.177 879.072 390.875 885.267 401.84 888.567C413.478 892.082 425.775 896.406 432.575 895.18C437.843 894.143 441.794 891.867 449.252 891.247C455.909 890.48 467.204 882.156 480.059 880.634C492.413 887.746 505.01 894.372 517.307 899.935C517.837 900.177 518.538 900.473 519.268 900.783C517.937 900.891 516.534 901.053 514.931 901.362C510.321 902.399 491.44 906.319 486.816 904.245C482.65 902.197 491.583 913.767 497.223 918.131C488.247 919.734 475.75 920.959 471.455 919.949C465.314 918.71 483.752 935.425 490.996 937.283C491.296 937.364 491.54 937.431 491.84 937.512C485.914 939.331 480.531 940.664 477.84 940.516C471.484 940.098 498.039 956.409 505.282 955.372C528.559 952.274 550.504 959.709 561.27 955.574C570.918 952.072 576.63 949.594 581.454 948.139C586.293 946.496 588.927 942.361 591.99 940.3C594.309 938.59 596.013 935.021 603.986 931.424C604.244 931.869 604.402 932.084 604.402 932.084C604.402 932.084 619.046 932.892 628.924 932.071C626.161 933.095 622.754 934.819 618.903 937.728C606.907 941.257 597.23 944.327 594.18 945.769C584.947 950.092 561.456 969.5 555.314 975.898C555.314 975.898 575.07 974.457 578.147 974.457C581.225 974.457 588.025 961.648 591.103 959.385C591.99 958.793 597.001 956.368 604.387 953.136C590.859 973.581 610.557 990.282 610.557 990.282C605.289 984.504 611.216 974.389 611.216 974.389L621.966 980.787C608.467 959.049 629.353 944.529 636.282 940.489C637.012 940.219 637.728 939.964 638.458 939.708C640.634 942.374 643.611 944.071 646.975 944.071C650.182 944.071 653.059 942.482 655.207 940.004C656.595 940.502 657.955 941.001 659.329 941.499C667.375 946.617 684.524 960.584 671.984 980.787L682.735 974.389C682.735 974.389 688.661 984.504 683.393 990.282C683.393 990.282 702.648 973.958 690.036 953.85C696.521 956.719 700.887 958.833 701.703 959.385C704.78 961.648 711.58 974.457 714.658 974.457C717.736 974.457 737.491 975.898 737.491 975.898C731.35 969.5 707.858 950.092 698.625 945.769C695.733 944.395 686.886 941.566 675.706 938.253C671.598 935.047 667.947 933.148 665.027 932.071C674.904 932.892 689.549 932.084 689.549 932.084C689.549 932.084 689.606 931.99 689.692 931.855C696.864 935.303 698.596 938.657 700.815 940.3C703.879 942.361 706.513 946.496 711.351 948.139C716.175 949.594 721.887 952.072 731.536 955.574C742.301 959.709 764.246 952.274 787.523 955.372C794.766 956.409 821.336 940.098 814.965 940.516C812.274 940.664 806.892 939.331 800.965 937.512C801.266 937.431 801.509 937.364 801.81 937.283C809.053 935.425 827.506 918.71 821.35 919.949C817.055 920.959 804.558 919.734 795.582 918.131C801.223 913.767 810.155 902.197 805.99 904.245C801.366 906.319 782.484 902.399 777.889 901.362C776.285 901.053 774.868 900.891 773.537 900.783C774.267 900.473 774.968 900.177 775.498 899.935C787.795 894.372 800.407 887.746 812.747 880.634C825.602 882.156 836.896 890.48 843.553 891.247C851.011 891.867 854.962 894.143 860.23 895.18C867.03 896.406 879.327 892.082 890.965 888.567C901.945 885.267 900.628 879.072 910.72 875.556C917.749 873.078 929.388 862.963 923.891 865.859C919.682 868.202 905.839 865.024 895.89 863.138C897.779 862.465 896.691 860.902 908.502 851.003C913.999 846.249 918.379 829.521 913.34 833.251C910.32 835.433 904.994 836.416 900.027 836.847C903.448 831.5 906.855 814.988 903.878 818.786C900.857 822.194 892.053 827.5 887.043 829.17C895.833 821.709 902.518 815.163 906.412 810.166C910.32 808.913 916.504 805.991 920.369 805.991C926.524 805.991 944.734 808.253 949.343 803.917C953.953 799.58 960.752 791.741 963.172 790.286C965.376 788.845 973.722 775.834 976.127 768.831C978.332 761.598 994.35 748.587 996.541 747.146C996.541 747.146 984.473 744.883 972.591 747.173C975.64 738.594 978.661 729.085 983.585 725.677C983.585 725.677 962.957 730.634 957.689 731.469C949.143 732.708 941.77 733.974 937.519 739.348C940.153 731.118 942.4 723.495 944.104 717.232C944.404 716.06 944.891 714.444 945.449 712.612C947.124 710.215 950.345 706.821 956.157 705.003C971.374 700.262 985.146 699.225 990.628 694.066C995.896 689.11 998.974 685.594 1001.16 683.332C1003.58 681.271 1009.51 672.597 1010.38 668.26C1011.04 664.125 1015.65 648.232 1014.99 645.35Z" fill="#D1D2D2"/>
<path d="M796.758 857.19C794.124 857.19 792.149 859.048 792.149 861.311C792.149 863.803 794.124 865.661 796.758 865.661C799.177 865.661 801.368 863.803 801.368 861.311C801.368 859.048 799.177 857.19 796.758 857.19Z" fill="#D1D2D2"/>
<path d="M822.661 887.1C820.027 887.1 818.051 889.174 818.051 891.437C818.051 893.915 820.027 895.774 822.661 895.774C825.08 895.774 827.27 893.915 827.27 891.437C827.27 889.174 825.08 887.1 822.661 887.1Z" fill="#D1D2D2"/>
<path d="M882.824 792.557C880.405 792.557 878.214 794.416 878.214 796.894C878.214 799.17 880.405 801.231 882.824 801.231C885.458 801.231 887.433 799.17 887.433 796.894C887.433 794.416 885.458 792.557 882.824 792.557Z" fill="#D1D2D2"/>
<path d="M915.112 814.035C915.112 816.715 917.532 818.789 920.166 818.789C923.014 818.789 925.205 816.715 925.205 814.035C925.205 811.557 923.014 809.294 920.166 809.294C917.532 809.294 915.112 811.557 915.112 814.035Z" fill="#D1D2D2"/>
<path d="M926.942 712.683C929.805 712.683 931.995 710.635 931.995 707.942C931.995 705.463 929.791 703.187 926.942 703.187C924.308 703.187 921.903 705.463 921.903 707.942C921.903 710.622 924.308 712.683 926.942 712.683Z" fill="#D1D2D2"/>
<path d="M942.325 617.304C939.462 617.304 937.271 619.365 937.271 622.059C937.271 624.524 939.462 626.8 942.325 626.8C945.174 626.8 947.378 624.537 947.378 622.059C947.378 619.365 945.174 617.304 942.325 617.304Z" fill="#D1D2D2"/>
<path d="M970.403 539.873C973.266 539.873 975.456 537.813 975.456 535.335C975.456 532.654 973.266 530.594 970.403 530.594C967.769 530.594 965.349 532.654 965.349 535.335C965.349 537.813 967.769 539.873 970.403 539.873Z" fill="#D1D2D2"/>
<path d="M934.632 548.531C937.495 548.531 939.685 546.47 939.685 543.79C939.685 541.312 937.495 539.035 934.632 539.035C931.783 539.035 929.579 541.312 929.579 543.79C929.579 546.47 931.783 548.531 934.632 548.531Z" fill="#D1D2D2"/>
<path d="M904.567 471.37C904.567 468.892 902.377 466.831 899.514 466.831C896.88 466.831 894.475 468.892 894.475 471.37C894.475 474.05 896.88 476.111 899.514 476.111C902.377 476.111 904.567 474.05 904.567 471.37Z" fill="#D1D2D2"/>
<path d="M926.283 456.086C929.146 456.086 931.337 454.012 931.337 451.331C931.337 448.867 929.132 446.59 926.283 446.59C923.42 446.59 921.23 448.867 921.23 451.331C921.23 454.012 923.42 456.086 926.283 456.086Z" fill="#D1D2D2"/>
<path d="M976.788 622.883C976.788 625.348 978.992 627.422 981.841 627.422C984.475 627.422 986.665 625.348 986.665 622.883C986.665 620.405 984.475 618.331 981.841 618.331C978.978 618.331 976.788 620.405 976.788 622.883Z" fill="#D1D2D2"/>
<path d="M496.048 857.19C493.629 857.19 491.439 859.048 491.439 861.311C491.439 863.803 493.629 865.661 496.048 865.661C498.682 865.661 500.658 863.803 500.658 861.311C500.658 859.048 498.682 857.19 496.048 857.19Z" fill="#D1D2D2"/>
<path d="M474.75 891.438C474.75 889.161 472.774 887.101 470.14 887.101C467.721 887.101 465.531 889.161 465.531 891.438C465.531 893.916 467.735 895.775 470.14 895.775C472.774 895.775 474.75 893.916 474.75 891.438Z" fill="#D1D2D2"/>
<path d="M409.982 792.557C407.348 792.557 405.373 794.416 405.373 796.894C405.373 799.17 407.348 801.231 409.982 801.231C412.401 801.231 414.592 799.17 414.592 796.894C414.592 794.416 412.401 792.557 409.982 792.557Z" fill="#D1D2D2"/>
<path d="M372.644 818.789C375.278 818.789 377.697 816.715 377.697 814.035C377.697 811.57 375.278 809.294 372.644 809.294C369.781 809.294 367.591 811.57 367.591 814.035C367.591 816.715 369.781 818.789 372.644 818.789Z" fill="#D1D2D2"/>
<path d="M365.865 703.193C363.016 703.193 360.812 705.456 360.812 707.934C360.812 710.628 363.002 712.688 365.865 712.688C368.499 712.688 370.904 710.628 370.904 707.934C370.904 705.456 368.499 703.193 365.865 703.193Z" fill="#D1D2D2"/>
<path d="M339.492 716.595C339.492 713.915 337.302 711.854 334.439 711.854C331.819 711.854 329.4 713.915 329.4 716.595C329.4 719.276 331.805 721.35 334.439 721.35C337.302 721.35 339.492 719.276 339.492 716.595Z" fill="#D1D2D2"/>
<path d="M350.481 626.804C353.344 626.804 355.534 624.528 355.534 622.05C355.534 619.369 353.344 617.309 350.481 617.309C347.632 617.309 345.428 619.369 345.428 622.05C345.428 624.528 347.632 626.804 350.481 626.804Z" fill="#D1D2D2"/>
<path d="M322.403 539.873C325.037 539.873 327.456 537.813 327.456 535.335C327.456 532.654 325.037 530.594 322.403 530.594C319.54 530.594 317.35 532.654 317.35 535.335C317.35 537.813 319.54 539.873 322.403 539.873Z" fill="#D1D2D2"/>
<path d="M358.176 539.041C355.313 539.041 353.123 541.303 353.123 543.782C353.123 546.462 355.313 548.536 358.176 548.536C361.025 548.536 363.229 546.475 363.229 543.782C363.229 541.303 361.025 539.041 358.176 539.041Z" fill="#D1D2D2"/>
<path d="M388.24 471.37C388.24 474.05 390.43 476.111 393.279 476.111C395.928 476.111 398.333 474.05 398.333 471.37C398.333 468.892 395.928 466.831 393.279 466.831C390.43 466.831 388.24 468.892 388.24 471.37Z" fill="#D1D2D2"/>
<path d="M366.521 456.086C369.384 456.086 371.574 454.012 371.574 451.331C371.574 448.867 369.384 446.59 366.521 446.59C363.672 446.59 361.467 448.867 361.467 451.331C361.467 454.012 363.658 456.086 366.521 456.086Z" fill="#D1D2D2"/>
<path d="M316.02 622.883C316.02 620.405 313.829 618.331 310.966 618.331C308.332 618.331 306.142 620.405 306.142 622.883C306.142 625.348 308.332 627.422 310.966 627.422C313.815 627.422 316.02 625.348 316.02 622.883Z" fill="#D1D2D2"/>
<path d="M587.031 556.408C589.221 555.99 589.894 556.61 590.767 558.468L592.084 558.051L590.767 555.168L599.542 551.667L598.655 550.01L586.372 555.168L587.031 556.408Z" fill="#D1D2D2"/>
<path d="M584.158 541.535L582.412 541.737L583.944 548.135L591.402 547.515L591.187 546.276C590.085 545.872 589.426 545.05 589.212 544.215C588.983 542.774 589.641 541.333 591.402 540.915C593.163 540.511 594.694 541.117 595.124 542.774C595.568 544.215 595.124 545.468 593.592 545.872L594.022 547.515C596.885 546.491 597.114 544.431 596.67 542.774C595.568 538.855 592.275 538.855 590.958 539.259C588.095 539.892 587.222 542.155 587.666 544.215C587.88 545.252 588.539 546.074 589.197 546.491L585.475 546.693L584.158 541.535Z" fill="#D1D2D2"/>
<path d="M584.831 531.21C587.25 531.412 587.895 529.567 588.338 528.732L589.226 526.052C589.87 523.991 590.314 523.371 591.846 523.573C593.835 523.789 594.05 525.85 593.835 527.089C593.606 528.732 592.733 530.591 590.314 530.389L590.099 532.032C591.416 532.247 592.504 532.032 593.835 531.008C594.265 530.591 595.138 529.567 595.367 527.291C595.582 525.015 594.923 522.132 591.631 521.917C589.655 521.715 588.338 522.752 587.895 524.395L586.592 528.112C586.363 528.732 585.933 529.553 584.616 529.553C582.641 529.351 582.412 527.493 582.641 526.254C582.641 524.812 583.514 523.358 585.704 523.358V521.715C584.173 521.715 581.324 521.917 580.88 526.469C580.665 529.567 582.641 531.008 584.831 531.21Z" fill="#D1D2D2"/>
<path d="M599.099 511.391L597.567 510.973L594.933 518.408L590.538 516.967L592.958 510.354L591.412 509.734L589.007 516.549L585.056 515.324L587.69 508.091L585.929 507.471L582.851 516.549L596.021 520.482L599.099 511.391Z" fill="#D1D2D2"/>
<path d="M590.753 502.338L592.8 499.362C593.301 498.594 593.974 498.055 594.862 498.176C595.162 498.217 595.477 498.405 595.821 498.621C597.138 499.442 597.166 500.507 596.279 501.746L594.547 504.426L590.753 502.338ZM601.031 508.588L595.964 505.611L598.183 502.19C599.714 499.712 598.669 497.719 596.923 496.681C596.05 496.17 595.062 496.008 594.074 496.237C593.086 496.479 592.041 497.139 591.383 498.176L588.377 503.079L599.929 509.921L601.031 508.588Z" fill="#D1D2D2"/>
<path d="M600.198 490.336L608.987 498.174L610.075 496.949L601.515 489.096L604.807 485.797L603.49 484.76L595.803 492.41L596.905 493.433L600.198 490.336Z" fill="#D1D2D2"/>
<path d="M616.223 492.193L607.877 481.862L606.56 482.899L614.691 493.23L616.223 492.193Z" fill="#D1D2D2"/>
<path d="M627.42 486.001L626.762 484.762L619.289 488.277L617.328 484.56L623.899 481.247L623.24 479.805L616.44 483.105L614.465 479.603L621.708 476.088L621.05 474.647L612.046 478.984L618.416 490.54L627.42 486.001Z" fill="#D1D2D2"/>
<path d="M630.724 485.177L628.978 477.54C628.749 477.325 628.319 475.682 628.09 474.443L634.46 484.356L636.221 483.938L637.538 472.584C637.968 473.823 638.182 475.264 638.182 475.682L639.943 483.103V483.117L641.704 482.914L638.855 470.106L636.221 470.725L634.904 482.295L628.534 472.382L625.9 472.786L628.978 485.379L630.724 485.177Z" fill="#D1D2D2"/>
<path d="M649.576 477.367C650.893 477.367 652.425 477.798 652.425 479.454C652.425 480.694 651.337 481.529 649.576 481.529L646.098 481.232L646.255 477.07L649.576 477.367ZM646.57 471.71L649.576 472.006C651.552 472.006 652.268 472.558 652.268 473.798C652.039 475.239 651.18 475.643 649.419 475.441H646.255L646.57 471.71ZM649.734 483.024C652.797 483.226 654.644 481.663 654.644 479.589C654.859 477.326 653.141 476.734 652.268 476.33C653.799 475.71 654.157 474.471 654.157 473.649C654.386 471.791 653.155 470.282 650.521 470.08L644.509 469.946L643.879 482.862L649.734 483.024Z" fill="#D1D2D2"/>
<path d="M644.453 469.939H644.509V469.925L644.453 469.939Z" fill="#D1D2D2"/>
<path d="M661.602 473.353L665.553 474.686C666.44 474.902 667.786 475.211 667.142 477.07C666.698 478.727 665.452 478.605 664.135 478.403L660.342 477.366L661.602 473.353ZM659.383 478.848L663.806 480.047C666.011 480.653 665.767 481.838 665.553 482.862C665.338 483.279 664.708 485.165 664.923 485.986L667.142 486.579V486.431C666.698 486.027 666.755 485.771 666.984 484.949L667.285 482.713C667.958 481.07 667.313 480.451 666.655 480.047C667.542 479.616 668.902 479.373 669.346 477.514C670.234 474.834 668.23 473.676 666.025 473.056L659.855 471.117L656.219 483.764L657.965 484.208L659.383 478.848Z" fill="#D1D2D2"/>
<path d="M677.251 492.198L677.91 490.959L670.881 487.026L673.071 483.322L679.671 486.824L680.544 485.585L673.959 481.868L676.149 478.568L683.178 482.487L684.065 481.046L675.276 476.292L668.462 487.444L677.251 492.198Z" fill="#D1D2D2"/>
<path d="M694.632 493.264C696.164 494.92 695.935 496.712 693.53 498.759C691.11 500.617 688.892 500.564 687.36 498.907L685.298 496.685L692.571 490.88L694.632 493.264ZM685.771 500.402C688.849 503.5 692.528 502.099 694.947 500.254C698.025 497.978 698.783 494.61 696.364 491.93L692.728 488.065L682.292 496.24L685.771 500.402Z" fill="#D1D2D2"/>
<path d="M695.032 514.489L696.564 513.87L692.842 506.852L697.007 504.994L700.286 511.391L701.832 510.556L698.324 504.374L702.275 502.515L705.783 509.331L707.329 508.711L702.705 500.239L690.422 506.017L695.032 514.489Z" fill="#D1D2D2"/>
<path d="M706.648 522.758L697.199 523.997L697.429 525.64L710.813 523.782L710.599 522.556C708.408 522.341 708.179 521.734 707.521 519.66L706.204 519.876L706.648 522.758Z" fill="#D1D2D2"/>
<path d="M707.749 536.39C706.647 536.175 705.702 535.245 705.702 534.006C705.702 532.983 706.647 532.228 707.749 532.228C708.622 532.228 709.71 532.646 709.496 534.303C709.496 535.959 708.408 536.39 707.749 536.39ZM701.422 536.39C699.446 536.39 699.217 534.895 699.217 533.858C699.217 532.013 700.649 531.636 701.737 531.636C702.839 531.636 704.013 532.511 703.798 534.154C703.798 535.394 703.182 536.39 701.422 536.39ZM707.749 530.289C706.432 530.289 705.502 530.841 705.058 532.08C704.614 530.639 703.497 529.75 701.737 529.548C701.092 529.548 699.89 529.494 698.587 530.733C697.7 531.77 697.471 533.037 697.471 533.858C697.256 536.754 699.446 538.182 701.422 538.182C702.524 538.37 704.027 538.033 704.9 536.39C705.115 537.01 705.831 538.033 707.592 538.02C709.338 538.235 711.228 537.198 711.228 534.303C711.442 531.42 709.281 530.289 707.749 530.289Z" fill="#D1D2D2"/>
<path d="M705.773 540.921L705.558 542.578C706.431 542.78 708.636 543.399 707.977 545.676C707.533 547.521 705.987 547.938 705.114 547.521C703.353 547.319 702.91 546.08 702.48 544.639L702.036 542.78C701.378 540.921 700.276 539.48 697.427 538.658L695.237 547.117L696.768 547.534L698.529 540.719C699.188 540.921 700.061 541.541 700.505 543.399L700.948 544.841C701.607 547.117 702.265 548.773 704.456 549.177C706.875 549.797 708.85 548.342 709.495 546.295C709.724 545.043 710.167 541.945 705.773 540.921Z" fill="#D1D2D2"/>
<path d="M703.175 552.88L701.858 555.56L693.297 551.641L692.409 553.297L704.706 558.658L705.15 557.419C703.389 556.18 703.618 555.358 704.492 553.297L703.175 552.88Z" fill="#D1D2D2"/>
<path d="M629.641 598.499L631.101 598.795L641.194 559.642C640.693 559.574 640.177 559.601 639.69 559.507L629.727 598.162L629.641 598.499Z" fill="#D1D2D2"/>
<path d="M628.188 581.734L629.606 582.205L638.037 559.026C637.551 558.904 637.078 558.756 636.606 558.608L628.317 581.41L628.188 581.734Z" fill="#D1D2D2"/>
<path d="M613.826 596.012L615.171 596.618L634.669 558.044C634.196 557.869 633.738 557.694 633.294 557.492L613.983 595.702L613.826 596.012Z" fill="#D1D2D2"/>
<path d="M610.749 589.578L631.893 556.782C631.449 556.567 631.005 556.351 630.576 556.109L609.461 588.851L610.749 589.578Z" fill="#D1D2D2"/>
<path d="M597.721 590.124L597.478 590.407L598.666 591.269L628.743 555.16C628.328 554.89 627.998 554.554 627.597 554.271L597.721 590.124Z" fill="#D1D2D2"/>
<path d="M599.699 581.214L626.297 553.401L626.369 553.32C625.982 553.011 625.581 552.741 625.209 552.418L598.583 580.285L599.699 581.214Z" fill="#D1D2D2"/>
<path d="M624 551.367C623.657 551.03 623.37 550.626 623.041 550.276L583.66 582.938L584.647 583.988L623.871 551.475L624 551.367Z" fill="#D1D2D2"/>
<path d="M621.823 548.888C621.509 548.511 621.151 548.174 620.864 547.783L600.05 561.589L599.749 561.804L600.623 562.949L621.823 548.888Z" fill="#D1D2D2"/>
<path d="M619.975 546.416C619.717 546.012 619.502 545.594 619.259 545.177L604.7 552.814L605.416 554.039L619.975 546.416Z" fill="#D1D2D2"/>
<path d="M602.578 548.959L603.18 550.252L618.554 543.949C618.325 543.518 618.025 543.141 617.838 542.696L602.578 548.959Z" fill="#D1D2D2"/>
<path d="M600.826 544.609L601.299 545.942L616.888 541.215L617.246 541.107L616.773 539.774L600.826 544.609Z" fill="#D1D2D2"/>
<path d="M616.344 538.249C616.23 537.791 616.072 537.36 615.972 536.889L599.61 540.256L599.925 541.643L616.344 538.249Z" fill="#D1D2D2"/>
<path d="M598.77 535.601L598.941 537.002L615.805 535.318C615.747 534.847 615.705 534.375 615.662 533.904L598.77 535.601Z" fill="#D1D2D2"/>
<path d="M598.5 532.34L615.478 532.179C615.463 531.95 615.392 531.734 615.392 531.492C615.392 531.249 615.463 531.02 615.478 530.778L598.485 530.94L598.5 532.34Z" fill="#D1D2D2"/>
<path d="M598.781 528.018L615.33 529.365L615.616 529.392C615.659 528.92 615.716 528.449 615.774 527.991L599.283 526.644L598.925 526.617L598.781 528.018Z" fill="#D1D2D2"/>
<path d="M599.26 523.009L615.938 526.417C616.038 525.959 616.124 525.501 616.238 525.043L599.561 521.635L599.26 523.009Z" fill="#D1D2D2"/>
<path d="M600.631 518.83L616.435 523.719L616.65 523.786C616.793 523.342 616.936 522.884 617.094 522.44L601.104 517.497L600.631 518.83Z" fill="#D1D2D2"/>
<path d="M602.637 513.2L602.036 514.48L617.654 520.742C617.854 520.311 618.083 519.894 618.298 519.476L602.966 513.335L602.637 513.2Z" fill="#D1D2D2"/>
<path d="M604.16 510.302L619.019 517.885L619.162 517.966C619.405 517.548 619.62 517.131 619.878 516.727L604.875 509.063L604.16 510.302Z" fill="#D1D2D2"/>
<path d="M607.011 506.436L620.568 515.527C620.854 515.137 621.226 514.813 621.527 514.436L607.899 505.278L607.011 506.436Z" fill="#D1D2D2"/>
<path d="M611.235 501.657L610.262 502.735L622.716 512.863L622.831 512.958C623.145 512.594 623.432 512.217 623.775 511.867L611.521 501.886L611.235 501.657Z" fill="#D1D2D2"/>
<path d="M614.751 498.479L613.663 499.448L625.058 510.695C625.416 510.371 625.817 510.102 626.203 509.792L615.008 498.721L614.751 498.479Z" fill="#D1D2D2"/>
<path d="M618.554 495.605L617.38 496.494L627.687 508.643C628.088 508.36 628.432 508.01 628.847 507.754L618.783 495.875L618.554 495.605Z" fill="#D1D2D2"/>
<path d="M623.296 493.04L622.008 493.74L630.153 506.953L630.21 507.061C630.64 506.818 631.083 506.616 631.527 506.387L623.482 493.336L623.296 493.04Z" fill="#D1D2D2"/>
<path d="M627.534 491.253L626.174 491.845L632.974 505.651C633.432 505.449 633.861 505.22 634.334 505.031L627.691 491.562L627.534 491.253Z" fill="#D1D2D2"/>
<path d="M632.318 489.664L630.915 490.122L636.254 504.479C636.727 504.331 637.199 504.183 637.672 504.062L632.432 489.987L632.318 489.664Z" fill="#D1D2D2"/>
<path d="M637.292 488.241L635.832 488.524L639.153 503.609C639.64 503.514 640.127 503.474 640.628 503.393L637.364 488.578L637.292 488.241Z" fill="#D1D2D2"/>
<path d="M642.578 503.203C643.079 503.15 643.566 503.096 644.067 503.069L642.435 487.674L640.96 487.782L642.578 503.203Z" fill="#D1D2D2"/>
<path d="M646.878 487.528L645.375 487.542L645.547 502.923C645.632 502.923 645.704 502.896 645.79 502.896C646.219 502.896 646.62 503.004 647.05 503.017L646.878 487.865V487.528Z" fill="#D1D2D2"/>
<path d="M648.568 502.968L648.554 503.156C649.041 503.197 649.542 503.237 650.028 503.304L651.617 487.762L650.129 487.627L648.568 502.968Z" fill="#D1D2D2"/>
<path d="M652.963 503.785L653.278 503.839L656.542 488.498L655.067 488.229L651.846 503.476C652.233 503.543 652.576 503.705 652.963 503.785Z" fill="#D1D2D2"/>
<path d="M661.279 490.082L659.862 489.624L654.708 503.969L654.594 504.265C655.066 504.4 655.553 504.521 656.025 504.682L661.15 490.406L661.279 490.082Z" fill="#D1D2D2"/>
<path d="M665.832 491.78L664.457 491.2L657.872 505.046L657.786 505.235C658.259 505.423 658.66 505.706 659.118 505.908L665.674 492.103L665.832 491.78Z" fill="#D1D2D2"/>
<path d="M668.533 492.982L660.688 506.141L660.516 506.451L661.819 507.138L669.836 493.669L668.533 492.982Z" fill="#D1D2D2"/>
<path d="M663.061 507.796L662.96 507.917C663.376 508.186 663.719 508.536 664.12 508.819L674.069 496.684L674.298 496.415L673.096 495.553L663.061 507.796Z" fill="#D1D2D2"/>
<path d="M665.589 509.831L666.691 510.788L677.628 499.609L677.872 499.339L676.769 498.397L665.589 509.831Z" fill="#D1D2D2"/>
<path d="M667.884 511.896L668.886 512.947L681.125 502.63L680.137 501.593L667.884 511.896Z" fill="#D1D2D2"/>
<path d="M670.307 514.258L670.049 514.434C670.35 514.811 670.722 515.134 670.994 515.525L683.935 506.514L684.236 506.312L683.363 505.167L670.307 514.258Z" fill="#D1D2D2"/>
<path d="M671.953 516.506L671.653 516.668C671.91 517.058 672.139 517.489 672.368 517.907L686.655 510.338L686.984 510.176L686.24 508.937L671.953 516.506Z" fill="#D1D2D2"/>
<path d="M673.413 519.275L673.212 519.355C673.427 519.786 673.685 520.177 673.871 520.621L688.687 514.48L689.031 514.345L688.415 513.066L673.413 519.275Z" fill="#D1D2D2"/>
<path d="M674.422 522.28C674.58 522.725 674.723 523.183 674.866 523.627L690.04 518.765L690.384 518.657L689.883 517.324L674.422 522.28Z" fill="#D1D2D2"/>
<path d="M675.272 524.854C675.387 525.312 675.516 525.757 675.616 526.215L691.721 522.807L691.377 521.447L675.272 524.854Z" fill="#D1D2D2"/>
<path d="M675.779 527.783C675.837 528.24 675.894 528.712 675.922 529.183L691.784 527.836L692.17 527.809L692.013 526.409L675.779 527.783Z" fill="#D1D2D2"/>
<path d="M676.178 531.49C676.178 531.652 676.135 531.8 676.135 531.948L692.411 532.11L692.44 530.709L676.078 530.547C676.092 530.871 676.178 531.167 676.178 531.49Z" fill="#D1D2D2"/>
<path d="M675.627 536.631C675.542 537.102 675.427 537.56 675.312 538.018L691.016 541.385L691.36 539.998L675.627 536.631Z" fill="#D1D2D2"/>
<path d="M692.005 536.742L692.162 535.354L675.943 533.684C675.929 533.778 675.914 533.886 675.914 533.994C675.872 534.358 675.843 534.721 675.786 535.071L691.618 536.701L692.005 536.742Z" fill="#D1D2D2"/>
<path d="M689.724 545.658L690.211 544.324L675.166 539.61L674.822 539.503L674.779 539.624C674.65 540.028 674.522 540.445 674.378 540.849L689.367 545.55L689.724 545.658Z" fill="#D1D2D2"/>
<path d="M673.848 542.44C673.662 542.885 673.375 543.275 673.161 543.693L687.548 549.794L687.891 549.942L688.521 548.663L673.848 542.44Z" fill="#D1D2D2"/>
<path d="M671.76 546.139L685.388 553.546L685.717 553.721L686.462 552.496L672.476 544.9C672.232 545.317 672.018 545.735 671.76 546.139Z" fill="#D1D2D2"/>
<path d="M670.004 548.599L690.346 562.58L691.219 561.435L670.949 547.522C670.677 547.899 670.305 548.222 670.004 548.599Z" fill="#D1D2D2"/>
<path d="M668.801 549.972C668.471 550.322 668.199 550.713 667.856 551.05L705.419 583.307L705.691 583.536L706.707 582.486L668.972 550.12L668.801 549.972Z" fill="#D1D2D2"/>
<path d="M665.599 553.012L691.209 580.744L692.34 579.855L666.772 552.136L666.758 552.109C666.486 552.352 666.2 552.554 665.914 552.769C665.813 552.85 665.699 552.931 665.599 553.012Z" fill="#D1D2D2"/>
<path d="M663.269 554.819L692.214 590.781L693.402 589.932L664.442 553.917C664.042 554.2 663.684 554.55 663.269 554.819Z" fill="#D1D2D2"/>
<path d="M660.294 556.469L680.407 588.78L680.608 589.09L681.896 588.376L661.597 555.796C661.182 556.038 660.724 556.24 660.294 556.469Z" fill="#D1D2D2"/>
<path d="M657.65 557.819L676.188 595.787L676.331 596.097L677.705 595.518L658.967 557.146C658.523 557.348 658.108 557.631 657.65 557.819Z" fill="#D1D2D2"/>
<path d="M654.395 558.778L662.355 581.419L662.483 581.742L663.901 581.297L655.827 558.36C655.354 558.508 654.882 558.643 654.395 558.778Z" fill="#D1D2D2"/>
<path d="M651.387 559.553L661.036 598.302L662.496 597.979L652.847 559.229C652.361 559.337 651.888 559.458 651.387 559.553Z" fill="#D1D2D2"/>
<path d="M506.574 816.975C506.574 816.975 501.893 822.053 504.498 826.363C504.498 826.363 509.165 831.939 516.165 826.363C516.165 826.363 504.885 826.524 506.574 816.975Z" fill="#D1D2D2"/>
<path d="M776.49 826.358C783.49 831.934 788.172 826.358 788.172 826.358C790.777 822.048 786.081 816.971 786.081 816.971C787.785 826.52 776.49 826.358 776.49 826.358Z" fill="#D1D2D2"/>
<path d="M548.926 811.569L546.492 810.208L540.466 819.785L542.899 821.145C545.934 822.829 548.983 822.249 550.944 819.125C552.891 816.027 551.932 813.252 548.926 811.569Z" fill="#D1D2D2"/>
<path d="M568.682 821.283C565.79 820.004 562.34 821.149 560.88 824.058C559.377 827.061 560.594 830.361 563.485 831.654C566.377 832.934 569.841 831.694 571.344 828.704C572.805 825.795 571.573 822.563 568.682 821.283Z" fill="#D1D2D2"/>
<path d="M637.16 837.946C633.982 837.797 631.262 840.087 631.076 843.279C630.904 846.592 633.352 849.219 636.545 849.367C639.723 849.515 642.428 847.145 642.6 843.831C642.772 840.639 640.338 838.094 637.16 837.946Z" fill="#D1D2D2"/>
<path d="M692.856 838.703L689.463 839.538L690.823 844.401L694.23 843.552C695.862 843.161 696.549 841.949 696.148 840.495C695.747 839.04 694.43 838.313 692.856 838.703Z" fill="#D1D2D2"/>
<path d="M693.801 834.394C693.444 833.142 692.399 832.495 690.938 832.859L687.818 833.64L689.006 837.883L692.184 837.101C693.544 836.765 694.145 835.647 693.801 834.394Z" fill="#D1D2D2"/>
<path d="M715.378 825.511C714.905 825.457 714.375 825.525 713.259 825.956L710.911 826.831L713.001 831.72L715.907 830.616C717.496 830.023 718.069 828.703 717.425 827.181C716.995 826.171 716.279 825.619 715.378 825.511Z" fill="#D1D2D2"/>
<path d="M735.665 818.554L736.496 823.456L740.676 821.315L736.782 817.988C736.166 817.449 735.193 816.412 735.193 816.412L735.15 816.439C735.15 816.439 735.508 817.772 735.665 818.554Z" fill="#D1D2D2"/>
<path d="M753.562 821.116L749.153 823.702L740.879 811.19L745.288 808.604C749.354 806.22 753.548 806.947 756.153 810.894C758.787 814.867 757.628 818.732 753.562 821.116ZM745.589 825.588L742.053 822.558L736.856 825.224L737.644 829.642L735.668 830.652L733.134 815.163L735.153 814.126L747.607 824.551L745.589 825.588ZM729.885 833.225L724.001 821.52L719.148 823.675L718.332 822.046L730.042 816.847L730.858 818.477L725.991 820.632L731.86 832.349L729.885 833.225ZM722.183 836.484L716.801 832.215L713.708 833.386L716.028 838.814L713.98 839.582L708.168 825.938L712.606 824.268C714.124 823.689 714.811 823.568 715.455 823.554C717.144 823.514 718.705 824.524 719.463 826.329C720.208 828.053 719.807 829.911 718.433 830.989L718.447 831.029C718.447 831.029 718.69 831.151 719.134 831.487L724.474 835.622L722.183 836.484ZM702.471 843.259L697.532 829.251L706.179 826.558L706.78 828.255L700.223 830.302L701.77 834.693L707.095 833.023L707.71 834.733L702.371 836.403L703.945 840.902L710.874 838.747L711.475 840.457L702.471 843.259ZM694.612 845.32L689.186 846.653L685.207 832.43L690.503 831.11C693.051 830.477 695.27 831.353 695.915 833.656C696.301 835.043 695.886 836.336 694.884 837.184L694.898 837.225C696.602 837.279 697.89 838.464 698.348 840.067C699.093 842.734 697.275 844.66 694.612 845.32ZM683.346 847.798L680.153 833.346L682.315 832.928L685.507 847.38L683.346 847.798ZM672.409 849.603L669.947 835.07L672.108 834.747L674.27 847.501L681.184 846.464L681.485 848.242L672.409 849.603ZM657.85 850.976L650.478 841.71C649.862 840.929 649.075 839.622 649.075 839.622H649.032C649.032 839.622 649.247 840.929 649.275 841.764L649.69 851.286L647.5 851.367L646.87 836.686L649.032 836.605L656.39 845.885C656.991 846.653 657.779 847.959 657.779 847.959H657.822C657.822 847.959 657.621 846.653 657.578 845.845L657.177 836.296L659.353 836.201L659.997 850.896L657.85 850.976ZM636.434 851.259C631.925 851.044 628.59 847.501 628.833 843.178C629.062 838.949 632.755 835.851 637.265 836.08C641.774 836.282 645.081 839.717 644.852 843.946C644.623 848.269 640.958 851.475 636.434 851.259ZM625.583 850.182L623.408 849.939L625.24 835.339L627.416 835.582L625.583 850.182ZM619.686 849.589L617.567 849.225L612.471 838.626C612.07 837.737 611.597 836.296 611.597 836.296L611.554 836.282C611.554 836.282 611.454 837.602 611.297 838.437L609.493 847.852L607.317 847.488L610.109 832.955L612.256 833.319L617.309 843.932C617.724 844.821 618.197 846.249 618.197 846.249L618.24 846.262C618.24 846.262 618.34 844.942 618.497 844.134L620.301 834.693L622.477 835.056L619.686 849.589ZM597.411 845.414C593.875 844.511 592.057 841.791 592.959 838.626L595.579 829.427L597.712 829.965L595.078 839.164C594.462 841.333 595.593 842.989 597.912 843.569C600.245 844.161 602.135 843.272 602.765 841.05L605.385 831.905L607.503 832.444L604.869 841.629C603.967 844.794 600.947 846.303 597.411 845.414ZM584.427 828.955C584.427 828.955 583.582 827.285 581.721 826.612C580.175 826.046 578.701 826.558 578.257 827.649C577.083 830.477 584.456 832.295 582.623 836.74C581.75 838.855 579.288 839.973 576.41 838.922C573.304 837.791 572.316 835.353 572.316 835.353L574.077 834.316C574.077 834.316 575.007 836.363 577.183 837.144C578.543 837.642 580.004 837.346 580.533 836.053C581.764 833.077 574.435 831.137 576.181 826.921C577.055 824.793 579.717 823.81 582.451 824.82C585.157 825.803 586.016 827.703 586.016 827.703L584.427 828.955ZM562.625 833.373C558.531 831.555 556.87 827.07 558.831 823.15C560.764 819.312 565.445 817.763 569.539 819.581C573.633 821.399 575.322 825.777 573.39 829.615C571.429 833.534 566.719 835.191 562.625 833.373ZM553.162 828.645L551.215 827.676L558.631 814.719L560.563 815.688L553.162 828.645ZM542.068 822.76L537.602 820.281L545.575 807.621L550.027 810.099C554.15 812.389 555.396 816.214 552.876 820.214C550.357 824.228 546.176 825.049 542.068 822.76ZM780.203 819.635L775.264 817.87C779.888 816.591 783.796 816.079 786.087 816.981L780.031 811.836C758.873 793.856 735.067 806.449 735.067 806.449C711.604 819.136 680.926 830.262 646.326 830.262C611.741 830.262 581.063 819.136 557.6 806.449C557.6 806.449 533.779 793.856 512.621 811.836L506.58 816.981C508.871 816.079 512.779 816.591 517.403 817.87L512.45 819.635C518.763 821.992 516.172 826.356 516.172 826.356L523.845 819.958C539.047 825.507 557.6 835.838 557.6 835.838C580.39 848.781 611.726 856.97 646.326 856.97C680.926 856.97 712.277 848.781 735.067 835.838C735.067 835.838 753.62 825.507 768.822 819.958L776.495 826.356C776.495 826.356 773.89 821.992 780.203 819.635Z" fill="#D1D2D2"/>
<path d="M746.154 810.211L743.749 811.625L750.005 821.08L752.424 819.666C755.416 817.915 756.275 815.1 754.228 812.016C752.21 808.958 749.132 808.46 746.154 810.211Z" fill="#D1D2D2"/>
</svg>
